<svg width="127" height="122" viewBox="0 0 127 122" fill="none" xmlns="http://www.w3.org/2000/svg">
<ellipse cx="63.5" cy="61" rx="63.5" ry="61" fill="#00BA00"/>
<path d="M45.3791 60.9653L38.4814 53.6365C36.8979 51.954 34.6899 51 32.3795 51H29.8151C26.6035 51 24 53.6035 24 56.8151C24 58.2236 24.5112 59.5843 25.4388 60.6443L45.2375 83.2714C48.9429 87.5061 55.4113 87.8511 59.5461 84.0344L101.539 45.272C103.108 43.8237 104 41.7856 104 39.6504C104 35.4252 100.575 32 96.3496 32H96.01C94.0699 32 92.196 32.7059 90.7382 33.986L59.2592 61.6261C55.2101 65.1814 49.0722 64.8892 45.3791 60.9653Z" fill="white" stroke="white"/>
</svg>
