<svg width="82" height="57" viewBox="0 0 82 57" fill="none" xmlns="http://www.w3.org/2000/svg">
<path d="M22.3791 29.9653L15.4814 22.6365C13.8979 20.954 11.6899 20 9.37946 20H6.81507C3.6035 20 1 22.6035 1 25.8151C1 27.2236 1.51125 28.5843 2.43878 29.6443L22.2375 52.2714C25.9429 56.5061 32.4113 56.8511 36.5461 53.0344L78.5387 14.272C80.1077 12.8237 81 10.7856 81 8.65041C81 4.42521 77.5748 1 73.3496 1H73.01C71.0699 1 69.196 1.70591 67.7382 2.986L36.2592 30.6261C32.2101 34.1814 26.0722 33.8892 22.3791 29.9653Z" fill="white" stroke="white"/>
</svg>
